<svg width="38" height="38" viewBox="0 0 38 38" fill="none" xmlns="http://www.w3.org/2000/svg">
<rect x="0.5" y="0.5" width="37" height="37" stroke="black"/>
<path fill-rule="evenodd" clip-rule="evenodd" d="M4 28.3572C6.23454 28.519 8.39801 28.1953 10.4431 27.2858C11.3669 26.9158 12.2038 26.4225 13.0329 25.7904C12.0538 25.7442 11.1774 25.5283 10.372 25.1198C8.98231 24.4184 8.00322 23.3393 7.40313 21.921C7.2689 21.5742 7.2689 21.5742 7.6558 21.605C8.627 21.6898 9.33763 21.6744 9.92192 21.4508C9.37711 21.2813 8.88756 21.1502 8.4296 20.9113C6.36877 19.7936 5.27914 18.0747 5.08963 15.7624C5.06595 15.4772 5.13701 15.4617 5.38968 15.5851C6.124 15.9628 6.90569 16.1478 7.82951 16.2017C7.42682 15.878 7.0794 15.5928 6.77146 15.2768C5.08174 13.5039 4.66326 10.6134 5.81606 8.43208C5.96608 8.13918 6.03714 8.13918 6.25823 8.39354C9.12444 11.6232 12.7013 13.5887 17.0282 14.2593C17.4862 14.3287 17.952 14.3518 18.4179 14.4135C18.7101 14.4674 18.7495 14.3287 18.7101 14.0897C18.2442 11.5692 19.4681 9.05643 21.7895 7.78461C24.1187 6.45884 27.1745 6.85195 29.0932 8.67103C29.2906 8.85602 29.488 8.90997 29.7564 8.82519C30.8934 8.55541 31.991 8.14689 33.0253 7.5765C33.0964 7.54566 33.1674 7.51483 33.278 7.43005C32.82 8.84831 31.9515 9.9043 30.6644 10.7599C31.8804 10.6443 32.9385 10.3051 33.9965 9.9043C34.0202 10.0585 33.9176 10.151 33.8623 10.2435C33.128 11.2224 32.2752 12.0779 31.2961 12.8102C31.1066 12.9412 31.0434 13.08 31.0434 13.3035C31.1145 17.7433 29.6696 21.6821 26.756 25.1121C24.0556 28.2493 20.5893 30.13 16.4439 30.7698C12.0617 31.4249 7.92426 30.6927 4.13423 28.4342C4.07896 28.388 4.04738 28.3726 4 28.3572Z" fill="#FCFCFC"/>
</svg>
