<svg width="32" height="32" viewBox="0 0 32 32" fill="none" xmlns="http://www.w3.org/2000/svg">
<path d="M27 0H5C2.23858 0 0 2.23858 0 5V27C0 29.7614 2.23858 32 5 32H27C29.7614 32 32 29.7614 32 27V5C32 2.23858 29.7614 0 27 0Z" fill="black"/>
<path d="M23.6 12.0999C23.4 11.3999 22.9 10.8999 22.2 10.6999C21 10.3999 15.9 10.3999 15.9 10.3999C15.9 10.3999 10.9 10.3999 9.60001 10.6999C8.90001 10.8999 8.4 11.3999 8.2 12.0999C8 13.3999 8 15.9999 8 15.9999C8 15.9999 8 18.5999 8.3 19.8999C8.5 20.5999 9 21.0999 9.7 21.2999C10.9 21.5999 16 21.5999 16 21.5999C16 21.5999 21 21.5999 22.3 21.2999C23 21.0999 23.5 20.5999 23.7 19.8999C24 18.5999 24 15.9999 24 15.9999C24 15.9999 24 13.3999 23.6 12.0999ZM14.4 18.3999V13.5999L18.6 15.9999L14.4 18.3999Z" fill="white"/>
</svg>
